Coordinates
version=1
nRows=12
nColumns=46
inDegrees=yes

Units are S.I. units (second, meters, Newtons, ...)
Angles are in degrees.

endheader
time	pelvis_tilt	pelvis_list	pelvis_rotation	pelvis_tx	pelvis_ty	pelvis_tz	bb_angle	bb_tx	bb_ty	bb_tz	hip_flexion_r	hip_adduction_r	hip_rotation_r	knee_angle_r	knee_angle_r_beta	ankle_angle_r	subtalar_angle_r	mtp_angle_r	crank_angle_r	hip_flexion_l	hip_adduction_l	hip_rotation_l	knee_angle_l	knee_angle_l_beta	ankle_angle_l	subtalar_angle_l	mtp_angle_l	crank_angle_l	lumbar_extension	lumbar_bending	lumbar_rotation	arm_flex_r	arm_add_r	arm_rot_r	elbow_flex_r	pro_sup_r	wrist_flex_r	wrist_dev_r	arm_flex_l	arm_add_l	arm_rot_l	elbow_flex_l	pro_sup_l	wrist_flex_l	wrist_dev_l
      7.50000000	    -16.67764458	      2.27447300	      7.60566564	      0.12115929	      1.10605520	     -0.25681442	      0.00000000	      0.50000000	      0.00000000	      0.25000000	     58.62735377	    -10.08190945	      0.04692812	     75.54988198	      1.31859419	    -32.46996877	    -21.35834639	      0.00000000	      0.00000000	     78.35577657	      4.89182399	      3.55521113	     75.73335081	      1.32179633	      6.45455551	    -11.63470760	      0.00000000	      0.00000000	    -59.37613337	      0.53840557	     -6.25780927	     89.69888367	     -7.15507236	     32.72911158	     33.92286509	     27.06433235	      0.00000000	      0.00000000	     89.51155167	     -8.38248792	     34.72553175	     43.55734062	     31.89596242	      0.00000000	      0.00000000
      7.50500000	    -16.44266964	      1.95268333	      7.51758154	      0.12140450	      1.10593263	     -0.25707699	      0.00000000	      0.50000000	      0.00000000	      0.25000000	     59.59518063	     -9.75887288	      0.22738273	     77.94025386	      1.36031405	    -32.16258840	    -21.23968165	      0.00000000	      0.00000000	     76.54757587	      4.80524784	      3.96609688	     73.09709138	      1.27578492	      5.75976708	    -12.27245357	      0.00000000	      0.00000000	    -59.51215286	      0.77753279	     -5.86615784	     89.70176106	     -7.15990644	     32.72745092	     33.90799708	     26.91991191	      0.00000000	      0.00000000	     89.51481655	     -8.36802417	     34.93157837	     43.39550894	     31.80522433	      0.00000000	      0.00000000
      7.51000000	    -16.19064695	      1.44445254	      7.38174141	      0.12173090	      1.10560510	     -0.25721956	      0.00000000	      0.50000000	      0.00000000	      0.25000000	     60.56649964	     -9.24202623	      0.26732143	     80.30936931	      1.40166291	    -31.86230537	    -21.22430123	      0.00000000	      0.00000000	     74.82209747	      4.53269295	      4.55468610	     70.63696408	      1.23284760	      5.04137383	    -12.40111347	      0.00000000	      0.00000000	    -59.64576604	      1.05787961	     -5.35430543	     89.70213720	     -7.15426241	     32.71821652	     33.95654488	     26.85603417	      0.00000000	      0.00000000	     89.51024643	     -8.41543873	     35.00517038	     43.35842886	     31.76727303	      0.00000000	      0.00000000
      7.51500000	    -15.89499445	      1.02270380	      7.27159020	      0.12207889	      1.10533452	     -0.25757563	      0.00000000	      0.50000000	      0.00000000	      0.25000000	     61.54157322	     -8.87175391	      0.30838847	     82.64816169	      1.44248254	    -31.58715398	    -21.04218494	      0.00000000	      0.00000000	     72.99052037	      4.31753431	      5.08269124	     68.15479801	      1.18952563	      4.26228057	    -12.77967179	      0.00000000	      0.00000000	    -59.83189702	      1.33061074	     -4.87813741	     89.70336217	     -7.20240522	     32.72135582	     34.03042566	     26.76076897	      0.00000000	      0.00000000	     89.50757690	     -8.42692447	     35.17848574	     43.25951276	     31.70752417	      0.00000000	      0.00000000
      7.52000000	    -15.72758367	      0.35799411	      7.08476524	      0.12236357	      1.10473337	     -0.25768365	      0.00000000	      0.50000000	      0.00000000	      0.25000000	     62.66299523	     -8.17914686	      0.27242479	     84.88996358	      1.48160937	    -31.40012120	    -21.02267994	      0.00000000	      0.00000000	     71.39777394	      3.83005921	      5.77639864	     65.85096221	      1.14931611	      3.60235797	    -12.46447934	      0.00000000	      0.00000000	    -59.87409623	      1.69582646	     -4.25168490	     89.70352804	     -7.15104570	     32.74170943	     34.08715788	     26.74427977	      0.00000000	      0.00000000	     89.49145515	     -8.55793710	     35.18331008	     43.24227905	     31.69269220	      0.00000000	      0.00000000
      7.52500000	    -15.35159372	      0.01220346	      6.99145934	      0.12277473	      1.10457949	     -0.25820062	      0.00000000	      0.50000000	      0.00000000	      0.25000000	     63.61614728	     -7.91413232	      0.32787424	     87.17487859	      1.52148866	    -31.00142480	    -20.72045495	      0.00000000	      0.00000000	     69.43548784	      3.59028288	      6.19074384	     63.43775952	      1.10719777	      2.71982133	    -12.96996542	      0.00000000	      0.00000000	    -60.17771950	      1.91955070	     -3.82697639	     89.70296052	     -7.32467294	     32.78026568	     34.28790615	     26.59725022	      0.00000000	      0.00000000	     89.50072194	     -8.52705138	     35.48470787	     43.13937987	     31.60297855	      0.00000000	      0.00000000
      7.53000000	    -15.20912395	     -0.66977447	      6.73558492	      0.12313187	      1.10389253	     -0.25837753	      0.00000000	      0.50000000	      0.00000000	      0.25000000	     64.82285082	     -7.21689110	      0.20793247	     89.31396065	      1.55882268	    -30.81785285	    -20.74996078	      0.00000000	      0.00000000	     67.84512402	      2.96107453	      6.75884298	     61.22093276	      1.06850685	      2.19655953	    -12.71515022	      0.00000000	      0.00000000	    -60.21328483	      2.25799717	     -3.16817439	     89.70441767	     -7.26238132	     32.81271289	     34.35089346	     26.57960240	      0.00000000	      0.00000000	     89.47215006	     -8.67985017	     35.46995979	     43.13904933	     31.58734592	      0.00000000	      0.00000000
      7.53500000	    -14.85727750	     -1.01607112	      6.62460532	      0.12353918	      1.10378501	     -0.25889024	      0.00000000	      0.50000000	      0.00000000	      0.25000000	     65.81684535	     -6.92346295	      0.31335707	     91.51431188	      1.59722606	    -30.17991835	    -20.32987186	      0.00000000	      0.00000000	     65.87881377	      2.62292436	      7.08413484	     58.83324103	      1.02683377	      1.29948937	    -13.16602838	      0.00000000	      0.00000000	    -60.56024278	      2.42426150	     -2.78562115	     89.70073354	     -7.40902778	     32.51492853	     34.70764896	     26.85145369	      0.00000000	      0.00000000	     89.47776242	     -8.68760871	     35.45259674	     43.23764789	     31.79737750	      0.00000000	      0.00000000
      7.54000000	    -14.55775156	     -1.59303534	      6.39331018	      0.12394702	      1.10365192	     -0.25915269	      0.00000000	      0.50000000	      0.00000000	      0.25000000	     66.85568918	     -6.35712353	      0.19257557	     93.52502553	      1.63231963	    -29.82499657	    -20.09021757	      0.00000000	      0.00000000	     64.03117973	      1.95737845	      7.44309655	     56.56110610	      0.98717753	      0.45105236	    -12.94937565	      0.00000000	      0.00000000	    -60.90064507	      2.67086006	     -2.21017037	     89.70035186	     -7.44938703	     32.11077308	     35.17576717	     27.41641155	      0.00000000	      0.00000000	     89.44947277	     -8.81834961	     35.03582550	     43.71330015	     32.20964579	      0.00000000	      0.00000000
      7.54500000	    -14.61636818	     -2.07107941	      6.20513805	      0.12421379	      1.10273798	     -0.25964421	      0.00000000	      0.50000000	      0.00000000	      0.25000000	     68.38846832	     -5.96298129	      0.19710629	     95.60479317	      1.66861842	    -29.27759811	    -19.84112598	      0.00000000	      0.00000000	     62.55200812	      1.46154115	      7.77214425	     54.27654851	      0.94730448	     -0.54608655	    -13.04187988	      0.00000000	      0.00000000	    -60.66079235	      2.88966727	     -1.80694433	     89.70214099	     -7.36256885	     32.61190620	     34.73264785	     27.19683787	      0.00000000	      0.00000000	     89.46461774	     -8.99515641	     35.91497596	     43.00228705	     32.10679208	      0.00000000	      0.00000000
      7.55000000	    -14.45681534	     -2.72701228	      5.98288238	      0.12441177	      1.10238150	     -0.25992626	      0.00000000	      0.50000000	      0.00000000	      0.25000000	     69.62005805	     -5.42819609	     -0.05480872	     97.50623564	      1.70180485	    -28.61156721	    -19.65411136	      0.00000000	      0.00000000	     60.86915162	      0.70114613	      8.16937354	     52.04275392	      0.90831741	     -1.31784966	    -12.54922251	      0.00000000	      0.00000000	    -60.86654456	      3.18059714	     -1.21370024	     89.70267237	     -7.41090521	     32.25043804	     35.33560438	     27.62437737	      0.00000000	      0.00000000	     89.43198198	     -9.18237562	     35.48262589	     43.57831706	     32.43801329	      0.00000000	      0.00000000
      7.55500000	    -14.53728126	     -3.39424475	      5.74408139	      0.12461961	      1.10145401	     -0.26031497	      0.00000000	      0.50000000	      0.00000000	      0.25000000	     71.17498610	     -4.90655232	     -0.28692804	     99.40041037	      1.73486444	    -28.13429773	    -19.79068453	      0.00000000	      0.00000000	     59.49568263	     -0.08033847	      8.42558937	     49.91778311	      0.87122967	     -1.89548501	    -12.17638906	      0.00000000	      0.00000000	    -60.71717087	      3.53775184	     -0.63727637	     89.71367649	     -7.28226284	     32.35231672	     35.32289886	     27.59648808	      0.00000000	      0.00000000	     89.40140203	     -9.35361767	     35.55118585	     43.46434691	     32.41374105	      0.00000000	      0.00000000
